<?xml version="1.0"?>
<svg width="178" height="178" xmlns="http://www.w3.org/2000/svg" xmlns:svg="http://www.w3.org/2000/svg" version="1.1">

 <g class="layer">
  <title>Layer 1</title>
  <rect fill="#00AB37" height="178" id="rect1" width="178"/>
  <path d="m48.98,153.27l0,8.73l-1.03,0l-4.75,-6.85l-0.09,0l0,6.85l-1.05,0l0,-8.73l1.02,0l4.77,6.87l0.09,0l0,-6.87l1.04,0zm6.1,6.05l0,-3.86l1.01,0l0,6.54l-1.01,0l0,-1.11l-0.07,0c-0.15,0.33 -0.39,0.62 -0.71,0.85c-0.33,0.23 -0.74,0.35 -1.23,0.35c-0.41,0 -0.77,-0.09 -1.09,-0.27c-0.32,-0.19 -0.57,-0.46 -0.75,-0.82c-0.18,-0.37 -0.27,-0.83 -0.27,-1.39l0,-4.15l1,0l0,4.08c0,0.48 0.13,0.86 0.4,1.15c0.27,0.28 0.62,0.42 1.03,0.42c0.25,0 0.51,-0.06 0.77,-0.19c0.26,-0.13 0.48,-0.32 0.65,-0.59c0.18,-0.26 0.27,-0.6 0.27,-1.01zm-2.01,-4.75l1.04,-1.98l1.18,0l-1.33,1.98l-0.89,0zm4.86,7.43l0,-6.54l0.97,0l0,1.02l0.09,0c0.13,-0.35 0.35,-0.62 0.66,-0.82c0.3,-0.19 0.66,-0.29 1.09,-0.29c0.43,0 0.79,0.1 1.08,0.29c0.29,0.2 0.51,0.47 0.68,0.82l0.06,0c0.17,-0.34 0.42,-0.61 0.76,-0.81c0.33,-0.2 0.74,-0.3 1.2,-0.3c0.59,0 1.07,0.18 1.44,0.55c0.37,0.36 0.56,0.93 0.56,1.7l0,4.38l-1.01,0l0,-4.38c0,-0.48 -0.13,-0.83 -0.39,-1.04c-0.27,-0.2 -0.58,-0.31 -0.94,-0.31c-0.46,0 -0.81,0.14 -1.07,0.42c-0.25,0.28 -0.37,0.62 -0.37,1.05l0,4.26l-1.03,0l0,-4.48c0,-0.37 -0.12,-0.68 -0.36,-0.9c-0.24,-0.23 -0.55,-0.35 -0.93,-0.35c-0.26,0 -0.51,0.07 -0.74,0.21c-0.22,0.14 -0.4,0.33 -0.54,0.58c-0.14,0.25 -0.21,0.53 -0.21,0.85l0,4.09l-1,0zm13.17,0.14c-0.63,0 -1.17,-0.14 -1.63,-0.42c-0.45,-0.28 -0.81,-0.68 -1.05,-1.18c-0.25,-0.5 -0.37,-1.09 -0.37,-1.76c0,-0.67 0.12,-1.26 0.37,-1.77c0.24,-0.52 0.59,-0.92 1.03,-1.21c0.44,-0.29 0.96,-0.43 1.55,-0.43c0.34,0 0.68,0.06 1.01,0.17c0.33,0.11 0.63,0.3 0.91,0.55c0.27,0.26 0.49,0.59 0.65,1.01c0.16,0.42 0.24,0.93 0.24,1.54l0,0.43l-5.04,0l0,-0.87l4.02,0c0,-0.37 -0.07,-0.7 -0.22,-0.99c-0.15,-0.29 -0.35,-0.52 -0.62,-0.69c-0.27,-0.16 -0.59,-0.25 -0.95,-0.25c-0.4,0 -0.75,0.1 -1.04,0.3c-0.29,0.2 -0.51,0.45 -0.67,0.77c-0.16,0.31 -0.23,0.65 -0.23,1.01l0,0.58c0,0.5 0.08,0.91 0.25,1.26c0.18,0.34 0.42,0.6 0.72,0.78c0.31,0.18 0.67,0.26 1.07,0.26c0.27,0 0.51,-0.03 0.72,-0.11c0.21,-0.08 0.4,-0.19 0.56,-0.34c0.15,-0.15 0.27,-0.34 0.36,-0.57l0.97,0.27c-0.1,0.33 -0.27,0.62 -0.52,0.87c-0.24,0.25 -0.54,0.44 -0.89,0.58c-0.36,0.14 -0.75,0.21 -1.2,0.21zm4.24,-0.14l0,-6.54l0.97,0l0,0.98l0.07,0c0.12,-0.32 0.34,-0.58 0.65,-0.78c0.31,-0.21 0.66,-0.31 1.06,-0.31c0.07,0 0.16,0 0.27,0.01c0.11,0 0.2,0 0.26,0.01l0,1.02c-0.04,-0.01 -0.12,-0.02 -0.24,-0.04c-0.12,-0.02 -0.25,-0.03 -0.38,-0.03c-0.32,0 -0.6,0.07 -0.85,0.2c-0.25,0.14 -0.44,0.32 -0.59,0.55c-0.14,0.23 -0.21,0.49 -0.21,0.79l0,4.14l-1.01,0zm6.93,0.14c-0.59,0 -1.11,-0.14 -1.56,-0.43c-0.44,-0.28 -0.79,-0.67 -1.04,-1.18c-0.25,-0.5 -0.37,-1.09 -0.37,-1.77c0,-0.68 0.12,-1.28 0.37,-1.78c0.25,-0.51 0.6,-0.91 1.04,-1.19c0.45,-0.28 0.97,-0.42 1.56,-0.42c0.59,0 1.11,0.14 1.55,0.42c0.44,0.28 0.79,0.68 1.04,1.19c0.25,0.5 0.37,1.1 0.37,1.78c0,0.68 -0.12,1.27 -0.37,1.77c-0.25,0.51 -0.6,0.9 -1.04,1.18c-0.44,0.29 -0.96,0.43 -1.55,0.43zm0,-0.91c0.45,0 0.82,-0.11 1.11,-0.34c0.28,-0.23 0.5,-0.54 0.64,-0.91c0.14,-0.38 0.21,-0.78 0.21,-1.22c0,-0.44 -0.07,-0.84 -0.21,-1.22c-0.14,-0.38 -0.36,-0.69 -0.64,-0.92c-0.29,-0.23 -0.66,-0.35 -1.11,-0.35c-0.45,0 -0.82,0.12 -1.11,0.35c-0.29,0.23 -0.51,0.54 -0.64,0.92c-0.14,0.38 -0.21,0.78 -0.21,1.22c0,0.44 0.07,0.84 0.21,1.22c0.13,0.37 0.35,0.68 0.64,0.91c0.29,0.23 0.66,0.34 1.11,0.34zm10.34,0.91c-0.54,0 -1.02,-0.14 -1.44,-0.42c-0.42,-0.28 -0.74,-0.67 -0.98,-1.17c-0.24,-0.51 -0.35,-1.11 -0.35,-1.81c0,-0.68 0.11,-1.28 0.35,-1.78c0.24,-0.51 0.56,-0.9 0.98,-1.18c0.42,-0.27 0.91,-0.41 1.46,-0.41c0.43,0 0.76,0.07 1.01,0.21c0.25,0.14 0.44,0.3 0.57,0.48c0.14,0.18 0.24,0.32 0.31,0.43l0.09,0l0,-3.22l1,0l0,8.73l-0.97,0l0,-1.01l-0.12,0c-0.07,0.12 -0.18,0.27 -0.31,0.46c-0.14,0.18 -0.33,0.34 -0.59,0.48c-0.25,0.14 -0.58,0.21 -1.01,0.21zm0.14,-0.91c0.4,0 0.75,-0.1 1.02,-0.31c0.28,-0.21 0.49,-0.51 0.64,-0.88c0.14,-0.38 0.22,-0.82 0.22,-1.31c0,-0.49 -0.07,-0.92 -0.22,-1.29c-0.14,-0.37 -0.35,-0.65 -0.63,-0.86c-0.28,-0.2 -0.62,-0.31 -1.03,-0.31c-0.43,0 -0.78,0.11 -1.06,0.33c-0.29,0.22 -0.5,0.51 -0.64,0.88c-0.14,0.37 -0.21,0.79 -0.21,1.25c0,0.46 0.07,0.89 0.22,1.27c0.14,0.38 0.35,0.68 0.63,0.9c0.29,0.22 0.64,0.33 1.06,0.33zm6.77,0.92c-0.41,0 -0.79,-0.08 -1.13,-0.23c-0.33,-0.16 -0.6,-0.39 -0.8,-0.69c-0.2,-0.3 -0.3,-0.66 -0.3,-1.09c0,-0.37 0.07,-0.68 0.22,-0.91c0.15,-0.24 0.35,-0.42 0.59,-0.55c0.25,-0.14 0.52,-0.24 0.82,-0.3c0.3,-0.07 0.61,-0.12 0.91,-0.16c0.4,-0.06 0.72,-0.09 0.97,-0.12c0.25,-0.03 0.43,-0.07 0.54,-0.14c0.12,-0.06 0.18,-0.18 0.18,-0.34l0,-0.03c0,-0.43 -0.12,-0.75 -0.35,-0.99c-0.23,-0.23 -0.57,-0.34 -1.03,-0.34c-0.48,0 -0.86,0.1 -1.13,0.31c-0.28,0.21 -0.47,0.44 -0.58,0.67l-0.95,-0.34c0.17,-0.39 0.39,-0.7 0.68,-0.93c0.29,-0.22 0.6,-0.38 0.94,-0.46c0.34,-0.1 0.67,-0.14 1,-0.14c0.21,0 0.45,0.03 0.73,0.08c0.27,0.04 0.54,0.14 0.79,0.3c0.26,0.15 0.48,0.38 0.65,0.69c0.17,0.31 0.25,0.73 0.25,1.25l0,4.31l-1,0l0,-0.89l-0.05,0c-0.07,0.15 -0.19,0.3 -0.34,0.46c-0.16,0.16 -0.38,0.3 -0.64,0.41c-0.27,0.12 -0.59,0.17 -0.97,0.17zm0.16,-0.9c0.39,0 0.73,-0.08 1,-0.23c0.28,-0.16 0.48,-0.36 0.62,-0.61c0.15,-0.25 0.22,-0.51 0.22,-0.78l0,-0.92c-0.05,0.05 -0.14,0.1 -0.29,0.14c-0.14,0.04 -0.3,0.08 -0.49,0.11c-0.18,0.03 -0.36,0.05 -0.54,0.07c-0.17,0.02 -0.31,0.04 -0.42,0.06c-0.26,0.03 -0.51,0.09 -0.73,0.16c-0.23,0.07 -0.41,0.19 -0.55,0.34c-0.14,0.15 -0.2,0.35 -0.2,0.6c0,0.35 0.12,0.62 0.38,0.8c0.26,0.17 0.6,0.26 1,0.26zm12.69,-4.33l-0.9,0.26c-0.06,-0.15 -0.14,-0.3 -0.26,-0.44c-0.1,-0.15 -0.25,-0.27 -0.44,-0.36c-0.19,-0.09 -0.43,-0.14 -0.72,-0.14c-0.4,0 -0.73,0.09 -1,0.28c-0.26,0.18 -0.4,0.41 -0.4,0.69c0,0.25 0.09,0.45 0.28,0.59c0.18,0.15 0.46,0.27 0.85,0.36l0.97,0.24c0.58,0.14 1.02,0.36 1.31,0.66c0.28,0.28 0.43,0.66 0.43,1.12c0,0.37 -0.11,0.71 -0.32,1c-0.22,0.3 -0.52,0.53 -0.9,0.7c-0.38,0.17 -0.83,0.26 -1.34,0.26c-0.67,0 -1.22,-0.15 -1.66,-0.44c-0.43,-0.29 -0.71,-0.71 -0.83,-1.27l0.96,-0.24c0.09,0.35 0.26,0.62 0.51,0.8c0.26,0.17 0.59,0.26 1.01,0.26c0.46,0 0.84,-0.1 1.11,-0.3c0.28,-0.2 0.42,-0.44 0.42,-0.72c0,-0.23 -0.08,-0.42 -0.24,-0.57c-0.16,-0.16 -0.4,-0.28 -0.73,-0.35l-1.09,-0.26c-0.6,-0.14 -1.04,-0.36 -1.33,-0.66c-0.27,-0.3 -0.41,-0.68 -0.41,-1.13c0,-0.37 0.1,-0.7 0.31,-0.98c0.21,-0.28 0.49,-0.51 0.85,-0.67c0.37,-0.16 0.78,-0.24 1.24,-0.24c0.65,0 1.16,0.14 1.53,0.42c0.37,0.29 0.63,0.67 0.79,1.13zm4.29,5.22c-0.59,0 -1.11,-0.14 -1.55,-0.43c-0.45,-0.28 -0.79,-0.67 -1.04,-1.18c-0.25,-0.5 -0.37,-1.09 -0.37,-1.77c0,-0.68 0.12,-1.28 0.37,-1.78c0.25,-0.51 0.59,-0.91 1.04,-1.19c0.44,-0.28 0.96,-0.42 1.55,-0.42c0.59,0 1.11,0.14 1.55,0.42c0.45,0.28 0.79,0.68 1.04,1.19c0.25,0.5 0.38,1.1 0.38,1.78c0,0.68 -0.13,1.27 -0.38,1.77c-0.25,0.51 -0.59,0.9 -1.04,1.18c-0.44,0.29 -0.96,0.43 -1.55,0.43zm0,-0.91c0.45,0 0.82,-0.11 1.11,-0.34c0.29,-0.23 0.5,-0.54 0.64,-0.91c0.14,-0.38 0.21,-0.78 0.21,-1.22c0,-0.44 -0.07,-0.84 -0.21,-1.22c-0.14,-0.38 -0.35,-0.69 -0.64,-0.92c-0.29,-0.23 -0.66,-0.35 -1.11,-0.35c-0.45,0 -0.82,0.12 -1.11,0.35c-0.29,0.23 -0.5,0.54 -0.64,0.92c-0.14,0.38 -0.21,0.78 -0.21,1.22c0,0.44 0.07,0.84 0.21,1.22c0.14,0.37 0.35,0.68 0.64,0.91c0.29,0.23 0.66,0.34 1.11,0.34zm4.5,0.77l0,-6.54l0.97,0l0,0.98l0.07,0c0.12,-0.32 0.34,-0.58 0.65,-0.78c0.31,-0.21 0.67,-0.31 1.06,-0.31c0.07,0 0.16,0 0.27,0.01c0.12,0 0.2,0 0.26,0.01l0,1.02c-0.04,-0.01 -0.12,-0.02 -0.24,-0.04c-0.12,-0.02 -0.25,-0.03 -0.38,-0.03c-0.32,0 -0.6,0.07 -0.85,0.2c-0.25,0.14 -0.44,0.32 -0.59,0.55c-0.14,0.23 -0.21,0.49 -0.21,0.79l0,4.14l-1.01,0zm7.72,-6.54l0,0.85l-3.39,0l0,-0.85l3.39,0zm-2.4,-1.57l1.01,0l0,6.24c0,0.28 0.04,0.49 0.12,0.63c0.08,0.14 0.19,0.24 0.32,0.28c0.14,0.05 0.28,0.07 0.43,0.07c0.11,0 0.2,0 0.27,-0.01c0.07,-0.02 0.13,-0.03 0.17,-0.04l0.2,0.91c-0.06,0.02 -0.16,0.05 -0.28,0.07c-0.12,0.03 -0.28,0.05 -0.47,0.05c-0.28,0 -0.56,-0.07 -0.83,-0.19c-0.27,-0.12 -0.5,-0.31 -0.67,-0.56c-0.18,-0.25 -0.27,-0.56 -0.27,-0.94l0,-6.51zm6.59,8.25c-0.63,0 -1.17,-0.14 -1.63,-0.42c-0.46,-0.28 -0.81,-0.68 -1.05,-1.18c-0.25,-0.5 -0.37,-1.09 -0.37,-1.76c0,-0.67 0.12,-1.26 0.37,-1.77c0.24,-0.52 0.59,-0.92 1.03,-1.21c0.44,-0.29 0.96,-0.43 1.55,-0.43c0.34,0 0.68,0.06 1.01,0.17c0.33,0.11 0.63,0.3 0.91,0.55c0.27,0.26 0.49,0.59 0.65,1.01c0.16,0.42 0.24,0.93 0.24,1.54l0,0.43l-5.04,0l0,-0.87l4.02,0c0,-0.37 -0.07,-0.7 -0.22,-0.99c-0.15,-0.29 -0.35,-0.52 -0.63,-0.69c-0.26,-0.16 -0.58,-0.25 -0.94,-0.25c-0.4,0 -0.75,0.1 -1.04,0.3c-0.29,0.2 -0.51,0.45 -0.67,0.77c-0.16,0.31 -0.23,0.65 -0.23,1.01l0,0.58c0,0.5 0.08,0.91 0.25,1.26c0.18,0.34 0.41,0.6 0.72,0.78c0.31,0.18 0.66,0.26 1.07,0.26c0.27,0 0.5,-0.03 0.72,-0.11c0.21,-0.08 0.4,-0.19 0.55,-0.34c0.16,-0.15 0.28,-0.34 0.37,-0.57l0.97,0.27c-0.1,0.33 -0.27,0.62 -0.52,0.87c-0.24,0.25 -0.54,0.44 -0.89,0.58c-0.36,0.14 -0.76,0.21 -1.2,0.21z" fill="white" id="path1"/>
  <path clip-rule="evenodd" d="m111.78,53.04c-11.52,-2.23 -20.32,-4.35 -22.26,-4.83l-0.01,-0.15l-0.01,-0.04c2.02,-0.42 11.97,-2.32 22.76,-1.33c19.46,1.79 17.21,-24.45 1.7,-19.89c5.64,-14.79 -16.17,-20.72 -19.92,-1.35c-2.24,11.6 -4.38,20.43 -4.84,22.28c-0.04,-0.01 -0.08,-0.01 -0.12,-0.01l-0.05,0.01c-0.41,-2.01 -2.32,-11.96 -1.33,-22.76c1.78,-19.47 -24.46,-17.21 -19.9,-1.71c-14.8,-5.64 -20.72,16.16 -1.34,19.91c11.58,2.25 20.41,4.39 22.28,4.84c-0.02,0.04 -0.03,0.09 -0.02,0.13l0,0.06c-2.05,0.42 -11.98,2.32 -22.76,1.33c-19.45,-1.79 -17.21,24.45 -1.7,19.89c-5.64,14.79 16.17,20.71 19.92,1.34c1.98,-10.2 3.88,-18.27 4.61,-21.32c0.31,6.01 -0.31,12.04 -1.55,17.9c-1.32,6.31 -3.3,12.47 -5.38,18.6c-2.18,6.1 -4.18,12.48 -5,19.07c-0.9,6.59 -0.75,13.37 0.54,19.96l0,0.01l0.02,0.07c0.24,1.03 1.26,1.67 2.29,1.43c1.04,-0.26 1.68,-1.28 1.44,-2.31c-1.44,-6.13 -1.84,-12.49 -1.23,-18.8c0.3,-3.16 0.83,-6.31 1.56,-9.41c0.72,-3.12 1.67,-6.18 2.6,-9.31c1.86,-6.24 3.62,-12.55 4.7,-19.01c0.88,-5.18 1.28,-10.44 1.04,-15.68c0.64,4.26 1.41,11.56 0.7,19.29c-1.78,19.45 24.47,17.21 19.91,1.71c14.79,5.64 20.72,-16.18 1.35,-19.92z" fill="white" fill-rule="evenodd" id="path2"/>
  <rect fill="#00ab37" height="19.45" id="rect2" width="102.46" x="38.22" y="147.24"/>
  <text fill="#ffffff" font-family="Cursive" font-size="16" font-weight="bold" id="svg_2" stroke="#000000" stroke-width="0" text-anchor="middle" x="87.5" xml:space="preserve" y="155">Primeiro Aplicativo</text>
 </g>
</svg>